<?xml version="1.0" encoding="UTF-8"?>
<svg id="Layer_1" data-name="Layer 1" xmlns="http://www.w3.org/2000/svg" viewBox="0 0 812.68 759.98">
  <defs>
    <style>
      .cls-1 {
        opacity: .5;
      }

      .cls-1, .cls-2 {
        fill: #2e29ff;
      }

      .cls-3 {
        fill: #fff;
      }
    </style>
  </defs>
  <polygon class="cls-3" points="0 0 294.6 0 372.05 208.88 85.71 208.88 0 0"/>
  <polygon class="cls-3" points="540.94 0 812.68 0 732.68 208.88 473 201.9 540.94 0"/>
  <rect class="cls-3" x="539.67" y="235.55" width="175.23" height="40"/>
  <rect class="cls-3" x="539.67" y="314.91" width="175.23" height="40"/>
  <rect class="cls-3" x="539.67" y="393" width="175.23" height="40.63"/>
  <polygon class="cls-3" points="423.48 464.75 627.28 464.75 521.89 759.98 320.63 759.98 423.48 464.75"/>
  <polygon class="cls-3" points="410.78 464.75 302.85 759.98 171.42 464.75 410.78 464.75"/>
  <rect class="cls-3" x="314.28" y="235.55" width="39.36" height="93.97"/>
  <polygon class="cls-3" points="399.45 332.23 483.16 239.36 519.35 239.36 519.35 331.25 481.4 331.25 481.77 295.78 446.73 332.23 399.45 332.23"/>
  <polygon class="cls-3" points="353.64 342.46 353.64 379 386.93 345.06 436.43 345.27 351.48 436.5 315.16 436.5 315.16 342.46 353.64 342.46"/>
  <polygon class="cls-1" points="201.55 235.55 297.51 235.55 297.51 325.68 257.45 325.68 257.45 271.07 201.55 271.07 201.55 235.55"/>
  <polygon class="cls-1" points="190.25 235.55 96.55 235.55 96.55 325.68 137.9 325.68 137.9 270.75 190.25 270.75 190.25 235.55"/>
  <polygon class="cls-2" points="96.55 339.25 136.61 339.25 136.61 395.79 190.25 395.79 190.25 434.24 96.55 434.24 96.55 339.25"/>
  <polygon class="cls-2" points="203.49 394.82 260.36 394.82 260.36 339.25 297.51 339.25 297.51 434.24 203.49 434.24 203.49 394.82"/>
  <rect class="cls-3" x="480.43" y="342.46" width="38.92" height="91.17"/>
</svg>